This is my own rip.

General
Unique ID                        : 173659191646893656675721271778173326658 (0x82A58B31F5D51F2E93EB4C8900351542)
Format                           : Matroska
Format version                   : Version 4 / Version 2
File size                        : 2.02 GiB
Duration                         : 1h 29mn
Overall bit rate mode            : Variable
Overall bit rate                 : 3 207 Kbps
Encoded date                     : UTC 2013-04-05 05:59:28
Writing application              : mkvmerge v6.1.0 ('Old Devil') built on Mar  2 2013 14:32:37
Writing library                  : libebml v1.3.0 + libmatroska v1.4.0

Video
ID                               : 1
Format                           : AVC
Format/Info                      : Advanced Video Codec
Format profile                   : High@L4.1
Format settings, CABAC           : Yes
Format settings, ReFrames        : 7 frames
Codec ID                         : V_MPEG4/ISO/AVC
Duration                         : 1h 29mn
Bit rate mode                    : Variable
Bit rate                         : 2 759 Kbps
Maximum bit rate                 : 16.1 Mbps
Width                            : 1 280 pixels
Height                           : 692 pixels
Display aspect ratio             : 1.850
Frame rate                       : 23.976 fps
Color space                      : YUV
Chroma subsampling               : 4:2:0
Bit depth                        : 8 bits
Scan type                        : Progressive
Bits/(Pixel*Frame)               : 0.130
Stream size                      : 1.73 GiB (86%)
Writing library                  : x264 core 129 r2245 bc13772
Language                         : English
Default                          : Yes
Forced                           : No

Audio
ID                               : 2
Format                           : AC-3
Format/Info                      : Audio Coding 3
Mode extension                   : CM (complete main)
Codec ID                         : A_AC3
Duration                         : 1h 29mn
Bit rate mode                    : Constant
Bit rate                         : 384 Kbps
Channel(s)                       : 2 channels
Channel positions                : Front: L R
Sampling rate                    : 48.0 KHz
Bit depth                        : 16 bits
Compression mode                 : Lossy
Stream size                      : 247 MiB (12%)
Language                         : English
Default                          : Yes
Forced                           : No

Menu
00:00:00.000                     : en:Save Me/Main Title
00:04:23.180                     : en:Jobless Sculptor
00:12:20.031                     : en:New Gig
00:17:14.951                     : en:Window Dressing
00:22:39.275                     : en:To Life
00:28:10.772                     : en:Job in Jeopardy
00:33:40.268                     : en:Inspiration
00:40:14.871                     : en:Illustrious Offer
00:44:46.100                     : en:Caught in the Act
00:50:29.568                     : en:Shifting Power
00:56:12.786                     : en:Movin' on Up
01:01:53.960                     : en:Ride
01:09:20.573                     : en:True Love
01:11:57.146                     : en:Kidnapped
01:22:10.968                     : en:Alive
01:26:01.698                     : en:Forever/End Credits
